<svg version="1" xmlns="http://www.w3.org/2000/svg" width="682.667" height="682.667" viewBox="0 0 512.000000 512.000000"><path d="M236.9.4c-.2.2-3.4.6-7 1-76.3 7.1-149 52.2-190.3 118C18.2 153.6 5.7 189.6 1.2 230c-.9 8.5-.8 45.8.1 53.5 3.5 27.7 9.5 50.3 20 74.5 4.4 10.1 8.2 17.7 12.6 25 1.1 1.9 2.9 5.1 4 7 3 5.5 14.8 21.7 22.1 30.5 36.7 43.7 88.3 74.6 143.5 85.9 20.8 4.3 28.7 5.1 52 5.1 16.4 0 23.8-.4 36.5-2 8.2-1 26.9-5.1 36.7-8.1 83-25.1 146.8-88.4 172.2-170.9 3.3-10.9 7.6-29.8 8.6-38.5.4-3 .9-6.9 1.2-8.5.8-5.9 1.1-45.1.3-52-1.6-13.6-2.2-17.5-3.5-23.5-.3-1.4-1-4.6-1.5-7.1-2.6-13-9.6-34.2-16.5-49.8-3.7-8.3-4.9-10.7-12.7-24.5C463.9 103.7 438 73.5 418 58c-2.4-1.9-5.3-4.3-6.5-5.3-2.1-1.9-21.5-14.9-27.5-18.4-8.1-4.8-28.2-14.3-37.1-17.7-17.2-6.4-40.3-12.3-55.4-14.1-2.7-.4-6.1-.9-7.5-1.2-2.8-.5-46.6-1.4-47.1-.9zM285 31.9c42.9 6.3 79.4 21.9 112 47.9 10 8 26.1 23.7 32 31.1 1.9 2.4 4 4.9 4.5 5.5 1.4 1.5 10.3 14 13.6 19.1 7.6 11.8 19.5 36.9 23.5 49.8 4.9 16 8.7 33.3 10.1 46.9 1.5 14.4.8 45.3-1.2 57.3-3.3 19.1-8.9 39.4-14.4 52-10.7 24.3-24 46.1-37.6 61.4-6 6.9-20.1 20.9-26 25.8-8.3 7-22.8 17.3-30 21.3-3.3 1.8-6.8 4-7.9 4.9-1 .9-2 1.5-2.2 1.4-.2-.1-4.1 1.5-8.6 3.7-21.2 9.9-43.5 16.6-67.8 20.1-9.4 1.4-41.9 1.8-52 .7-50-5.7-92.6-25-130.2-59-6.6-6-17.7-18.1-27.2-29.8-9-11.2-23.3-36.8-30-54-3.9-10.1-10.3-31.6-11.1-37.5-.2-1.1-1.1-6.5-2-12-2.6-14.9-2.6-51.1 0-65.5.3-1.4.7-4 1-5.8 3.5-21.4 11.5-44.9 22.4-65.7 5.8-11.1 12.9-22.7 14.4-23.3.4-.2.7-.8.7-1.4 0-1.1 9.7-13.3 18.5-23.3 5.1-5.8 12.1-12.3 26-24.4 6.7-5.7 27.7-19.1 39-24.7 14.9-7.5 27.8-12.4 42.9-16.4 12.2-3.3 12.5-3.3 19.6-4.5 2.5-.4 5.4-.9 6.5-1.1 1.1-.2 5.4-.7 9.5-1 4.1-.4 7.7-.8 7.9-1 .8-.7 37.2.5 44.1 1.5z"/><path d="M132.4 196.4c-7.9 2.2-11.8 7-11.7 14.7.1 3.7.7 5.8 2.7 8.4 3.8 4.9 5.6 5.6 17.5 6.6 5.8.5 11.5 1.1 12.6 1.3 19.7 4.2 36.8 12.1 48.9 22.6 9.3 8 23.6 24.8 23.6 27.7 0 .4.6 1.4 1.4 2.2 2 2.4 8.2 17.8 10 24.6 2.2 8.6 2.5 11 3.2 20.5.7 10.7 1.8 14.1 5.2 17.1 4 3.5 7.2 4.6 12 3.9 5.2-.8 9.1-3.5 11.5-8.1 1.5-2.9 1.7-5 1.3-13.9-.2-5.8-1-13-1.6-16-.6-3-1.3-6.7-1.5-8.1-1.1-5.9-7.1-21.9-11.4-30.5-15.1-29.6-41.7-53.3-73-65.1-10.1-3.8-25.4-7.1-35.9-7.9-5.3-.3-9.9-.8-10.2-.9-.3-.1-2.3.3-4.6.9zM373.8 195.5c-.2.1-4.1.5-8.7.9-30.3 2.3-58.8 15.2-81.5 36.6-8 7.6-9.9 10.3-7.8 11.2 1.2.5 7.2 11.3 10.8 19.5l3.1 7.3 3.9-4.7c14.5-17.8 36-32 55.9-37 6.2-1.5 18.8-3.3 23.8-3.3 7.4 0 11.7-1.9 15.2-6.5 4.9-6.4 3-17.2-3.7-21.4-1.8-1.1-10.4-3.1-11-2.6z"/></svg>